<svg width="48" height="48" viewBox="0 0 48 48" fill="none" xmlns="http://www.w3.org/2000/svg">
<path d="M48 24C48 32.3457 41.2345 39.1111 32.8889 39.1111C24.5433 39.1111 17.7778 32.3457 17.7778 24C17.7778 15.6544 24.5433 8.88892 32.8889 8.88892C41.2345 8.88892 48 15.6544 48 24Z" fill="#E6A1DF" fill-opacity="0.9"/>
<path d="M47.75 24C47.75 32.2076 41.0965 38.8611 32.8889 38.8611C24.6813 38.8611 18.0278 32.2076 18.0278 24C18.0278 15.7925 24.6813 9.13892 32.8889 9.13892C41.0965 9.13892 47.75 15.7925 47.75 24Z" stroke="#C929B9" stroke-opacity="0.7" stroke-width="0.5"/>
<circle cx="15.1111" cy="24" r="15.1111" fill="#1960EC" fill-opacity="0.5"/>
<circle cx="15.1111" cy="24" r="14.8611" stroke="#1960EC" stroke-opacity="0.6" stroke-width="0.5"/>
</svg>
