<svg width="150" height="31" viewBox="0 0 150 31" fill="none" xmlns="http://www.w3.org/2000/svg">
<path d="M47 15.5C47 23.5081 40.5081 30 32.5 30C24.4919 30 18 23.5081 18 15.5C18 7.49187 24.4919 1 32.5 1C40.5081 1 47 7.49187 47 15.5Z" fill="#E6A1DF" fill-opacity="0.9"/>
<path d="M46.75 15.5C46.75 23.3701 40.3701 29.75 32.5 29.75C24.6299 29.75 18.25 23.3701 18.25 15.5C18.25 7.62994 24.6299 1.25 32.5 1.25C40.3701 1.25 46.75 7.62994 46.75 15.5Z" stroke="#C929B9" stroke-opacity="0.7" stroke-width="0.5"/>
<circle cx="14.5" cy="15.5" r="14.5" fill="#1960EC" fill-opacity="0.5"/>
<circle cx="14.5" cy="15.5" r="14.25" stroke="#1960EC" stroke-opacity="0.6" stroke-width="0.5"/>
<path d="M60.825 10.75V21.425H64.675V24H53.35V21.425H57.925V13.325H53.35V10.75H60.825ZM57.775 9.025V6.25H60.8V9.025H57.775ZM67.3152 10.75H69.9652L70.0652 12.975C70.7402 11.3 72.1152 10.45 73.8402 10.45C76.6902 10.45 78.1152 12.525 78.1152 15.475V24H75.1902V16.125C75.1902 13.925 74.4902 12.8 72.9152 12.8C71.2402 12.8 70.2152 13.925 70.2152 16.125V24H67.3152V10.75ZM88.9805 14.95C88.7305 13.7 87.6555 13.05 86.3055 13.05C85.1555 13.05 84.1555 13.575 84.2055 14.6C84.2305 15.725 85.5805 16 87.2305 16.4C89.8055 17 92.1305 18.125 92.1305 20.475C92.1305 23.075 89.7555 24.3 86.7555 24.3C83.5555 24.3 81.0055 22.525 80.8055 19.75L83.9055 19.6C84.0805 20.925 85.2305 21.7 86.7555 21.7C87.9805 21.7 89.0805 21.4 89.0805 20.375C89.0805 19.3 87.6805 19.05 86.1055 18.675C83.4305 18.025 81.1555 16.95 81.1555 14.65C81.1555 12.025 83.5555 10.45 86.5305 10.45C89.3805 10.45 91.6305 12.15 92.0555 14.8L88.9805 14.95ZM94.0457 10.75H97.1457L100.596 20.5L103.946 10.75H107.021L101.796 25.3C101.196 27 100.071 27.75 98.1957 27.75H96.2207V25.25H97.8207C98.5457 25.25 98.9457 25 99.2207 24.325L99.5957 23.375H98.7957L94.0457 10.75ZM109.286 10.75H111.936L112.036 12.975C112.711 11.3 114.086 10.45 115.811 10.45C118.661 10.45 120.086 12.525 120.086 15.475V24H117.161V16.125C117.161 13.925 116.461 12.8 114.886 12.8C113.211 12.8 112.186 13.925 112.186 16.125V24H109.286V10.75ZM131.601 15.675C131.376 14.075 130.176 13.05 128.751 13.05C126.726 13.05 125.551 14.675 125.551 17.375C125.551 20.05 126.726 21.7 128.751 21.7C130.251 21.7 131.451 20.65 131.676 18.95L134.751 19.1C134.376 22.25 131.851 24.3 128.751 24.3C124.951 24.3 122.501 21.6 122.501 17.375C122.501 13.15 124.951 10.45 128.751 10.45C131.751 10.45 134.326 12.45 134.676 15.5L131.601 15.675ZM140.691 20.575H144.191V24H140.691V20.575Z" fill="black"/>
</svg>
