<svg width="94" height="20" viewBox="0 0 94 20" fill="none" xmlns="http://www.w3.org/2000/svg">
<path d="M27 10.5C27 15.1944 23.1944 19 18.5 19C13.8056 19 10 15.1944 10 10.5C10 5.80558 13.8056 2 18.5 2C23.1944 2 27 5.80558 27 10.5Z" fill="#E6A1DF" fill-opacity="0.9"/>
<path d="M26.75 10.5C26.75 15.0563 23.0563 18.75 18.5 18.75C13.9437 18.75 10.25 15.0563 10.25 10.5C10.25 5.94365 13.9437 2.25 18.5 2.25C23.0563 2.25 26.75 5.94365 26.75 10.5Z" stroke="#C929B9" stroke-opacity="0.7" stroke-width="0.5"/>
<circle cx="8.5" cy="10.5" r="8.5" fill="#1960EC" fill-opacity="0.5"/>
<circle cx="8.5" cy="10.5" r="8.25" stroke="#1960EC" stroke-opacity="0.6" stroke-width="0.5"/>
<path d="M36.288 7.52V14.352H38.752V16H31.504V14.352H34.432V9.168H31.504V7.52H36.288ZM34.336 6.416V4.64H36.272V6.416H34.336ZM40.4417 7.52H42.1377L42.2017 8.944C42.6337 7.872 43.5138 7.328 44.6177 7.328C46.4418 7.328 47.3538 8.656 47.3538 10.544V16H45.4818V10.96C45.4818 9.552 45.0338 8.832 44.0257 8.832C42.9537 8.832 42.2977 9.552 42.2977 10.96V16H40.4417V7.52ZM54.3075 10.208C54.1475 9.408 53.4595 8.992 52.5955 8.992C51.8595 8.992 51.2195 9.328 51.2515 9.984C51.2675 10.704 52.1315 10.88 53.1875 11.136C54.8355 11.52 56.3235 12.24 56.3235 13.744C56.3235 15.408 54.8035 16.192 52.8835 16.192C50.8355 16.192 49.2035 15.056 49.0755 13.28L51.0595 13.184C51.1715 14.032 51.9075 14.528 52.8835 14.528C53.6675 14.528 54.3715 14.336 54.3715 13.68C54.3715 12.992 53.4755 12.832 52.4675 12.592C50.7555 12.176 49.2995 11.488 49.2995 10.016C49.2995 8.336 50.8355 7.328 52.7395 7.328C54.5635 7.328 56.0035 8.416 56.2755 10.112L54.3075 10.208ZM57.5492 7.52H59.5333L61.7413 13.76L63.8853 7.52H65.8533L62.5093 16.832C62.1253 17.92 61.4053 18.4 60.2053 18.4H58.9413V16.8H59.9653C60.4293 16.8 60.6853 16.64 60.8612 16.208L61.1013 15.6H60.5893L57.5492 7.52ZM67.303 7.52H68.999L69.063 8.944C69.495 7.872 70.375 7.328 71.479 7.328C73.303 7.328 74.215 8.656 74.215 10.544V16H72.343V10.96C72.343 9.552 71.895 8.832 70.887 8.832C69.815 8.832 69.159 9.552 69.159 10.96V16H67.303V7.52ZM81.5847 10.672C81.4407 9.648 80.6727 8.992 79.7607 8.992C78.4647 8.992 77.7127 10.032 77.7127 11.76C77.7127 13.472 78.4647 14.528 79.7607 14.528C80.7207 14.528 81.4887 13.856 81.6327 12.768L83.6007 12.864C83.3607 14.88 81.7447 16.192 79.7607 16.192C77.3287 16.192 75.7607 14.464 75.7607 11.76C75.7607 9.056 77.3287 7.328 79.7607 7.328C81.6807 7.328 83.3287 8.608 83.5527 10.56L81.5847 10.672ZM87.4025 13.808H89.6425V16H87.4025V13.808Z" fill="url(#paint0_linear_57_22)"/>
<defs>
<linearGradient id="paint0_linear_57_22" x1="35.8947" y1="8" x2="58.7204" y2="15.7626" gradientUnits="userSpaceOnUse">
<stop stop-color="#C929B9" stop-opacity="0.7"/>
<stop offset="1" stop-color="#1960EC" stop-opacity="0.8"/>
</linearGradient>
</defs>
</svg>
