<svg width="47" height="29" viewBox="0 0 47 29" fill="none" xmlns="http://www.w3.org/2000/svg">
<path d="M47 14.5C47 22.5081 40.5081 29 32.5 29C24.4919 29 18 22.5081 18 14.5C18 6.49187 24.4919 0 32.5 0C40.5081 0 47 6.49187 47 14.5Z" fill="#E6A1DF" fill-opacity="0.9"/>
<path d="M46.75 14.5C46.75 22.3701 40.3701 28.75 32.5 28.75C24.6299 28.75 18.25 22.3701 18.25 14.5C18.25 6.62994 24.6299 0.25 32.5 0.25C40.3701 0.25 46.75 6.62994 46.75 14.5Z" stroke="#C929B9" stroke-opacity="0.7" stroke-width="0.5"/>
<path d="M14.5 29C22.5081 29 29 22.5081 29 14.5C29 6.49187 22.5081 0 14.5 0C6.49187 0 0 6.49187 0 14.5C0 22.5081 6.49187 29 14.5 29Z" fill="#1960EC" fill-opacity="0.5"/>
<path d="M14.5 28.75C22.3701 28.75 28.75 22.3701 28.75 14.5C28.75 6.62994 22.3701 0.25 14.5 0.25C6.62994 0.25 0.25 6.62994 0.25 14.5C0.25 22.3701 6.62994 28.75 14.5 28.75Z" stroke="#1960EC" stroke-opacity="0.6" stroke-width="0.5"/>
</svg>
