<svg width="150" height="31" viewBox="0 0 150 31" fill="none" xmlns="http://www.w3.org/2000/svg">
<path d="M47 15.5C47 23.5081 40.5081 30 32.5 30C24.4919 30 18 23.5081 18 15.5C18 7.49187 24.4919 1 32.5 1C40.5081 1 47 7.49187 47 15.5Z" fill="#E6A1DF" fill-opacity="0.9"/>
<path d="M46.75 15.5C46.75 23.3701 40.3701 29.75 32.5 29.75C24.6299 29.75 18.25 23.3701 18.25 15.5C18.25 7.62994 24.6299 1.25 32.5 1.25C40.3701 1.25 46.75 7.62994 46.75 15.5Z" stroke="#C929B9" stroke-opacity="0.7" stroke-width="0.5"/>
<path d="M14.5 30C22.5081 30 29 23.5081 29 15.5C29 7.49187 22.5081 1 14.5 1C6.49187 1 0 7.49187 0 15.5C0 23.5081 6.49187 30 14.5 30Z" fill="#1960EC" fill-opacity="0.5"/>
<path d="M14.5 29.75C22.3701 29.75 28.75 23.3701 28.75 15.5C28.75 7.62994 22.3701 1.25 14.5 1.25C6.62994 1.25 0.25 7.62994 0.25 15.5C0.25 23.3701 6.62994 29.75 14.5 29.75Z" stroke="#1960EC" stroke-opacity="0.6" stroke-width="0.5"/>
<path d="M64.475 10.75V21.425H68.325V24H57V21.425H61.575V13.325H57V10.75H64.475ZM61.425 9.025V6.25H64.45V9.025H61.425ZM70.9652 10.75H73.6152L73.7152 12.975C74.3902 11.3 75.7652 10.45 77.4902 10.45C80.3402 10.45 81.7652 12.525 81.7652 15.475V24H78.8402V16.125C78.8402 13.925 78.1402 12.8 76.5652 12.8C74.8902 12.8 73.8652 13.925 73.8652 16.125V24H70.9652V10.75ZM92.6305 14.95C92.3805 13.7 91.3055 13.05 89.9555 13.05C88.8055 13.05 87.8055 13.575 87.8555 14.6C87.8805 15.725 89.2305 16 90.8805 16.4C93.4555 17 95.7805 18.125 95.7805 20.475C95.7805 23.075 93.4055 24.3 90.4055 24.3C87.2055 24.3 84.6555 22.525 84.4555 19.75L87.5555 19.6C87.7305 20.925 88.8805 21.7 90.4055 21.7C91.6305 21.7 92.7305 21.4 92.7305 20.375C92.7305 19.3 91.3305 19.05 89.7555 18.675C87.0805 18.025 84.8055 16.95 84.8055 14.65C84.8055 12.025 87.2055 10.45 90.1805 10.45C93.0305 10.45 95.2805 12.15 95.7055 14.8L92.6305 14.95ZM97.6957 10.75H100.796L104.246 20.5L107.596 10.75H110.671L105.446 25.3C104.846 27 103.721 27.75 101.846 27.75H99.8707V25.25H101.471C102.196 25.25 102.596 25 102.871 24.325L103.246 23.375H102.446L97.6957 10.75ZM112.936 10.75H115.586L115.686 12.975C116.361 11.3 117.736 10.45 119.461 10.45C122.311 10.45 123.736 12.525 123.736 15.475V24H120.811V16.125C120.811 13.925 120.111 12.8 118.536 12.8C116.861 12.8 115.836 13.925 115.836 16.125V24H112.936V10.75ZM135.251 15.675C135.026 14.075 133.826 13.05 132.401 13.05C130.376 13.05 129.201 14.675 129.201 17.375C129.201 20.05 130.376 21.7 132.401 21.7C133.901 21.7 135.101 20.65 135.326 18.95L138.401 19.1C138.026 22.25 135.501 24.3 132.401 24.3C128.601 24.3 126.151 21.6 126.151 17.375C126.151 13.15 128.601 10.45 132.401 10.45C135.401 10.45 137.976 12.45 138.326 15.5L135.251 15.675ZM144.341 20.575H147.841V24H144.341V20.575Z" fill="#1B2B4B"/>
</svg>
